<svg xmlns="http://www.w3.org/2000/svg" viewBox="0 0 100 60">
  <!-- AWS Logo: White 'aws' and Orange Smile -->
  <path fill="white" d="M38.2 6.6c-4 0-7.2 1.6-9.1 4.7l3 3.4c1.2-1.9 2.9-3.2 5.6-3.2 4 0 6.6 2.3 6.6 5.8v1.3c-2.3-.3-5.2-.5-8-.5-6.5 0-11.2 2.8-11.2 8.4 0 5 3.7 8.1 9.4 8.1 4.8 0 8.3-2.1 10-5.4l.2.3c.4 2.8 3.3 5.1 8 5.1 3.5 0 6.5-.9 8.7-2.6l-2-4.1c-1.4 1.1-3 1.7-4.8 1.7-2.5 0-4.3-1.4-4.3-4.1V13.8c-.1-4.7-4-7.2-12.1-7.2zm4.5 21.6c-.9 2.4-3.3 3.9-6.3 3.9-3.4 0-5.1-1.7-5.1-3.9 0-2.5 1.9-4.2 6.1-4.2 1.7 0 3.7.1 5.3.3v3.9zM73 6.6c-1.9 0-3.5.5-4.8 1.4-1.3-.9-2.9-1.4-4.8-1.4-2.5 0-4.5.9-6 2.5l-.2-.3c-.3-1.4-1.7-2.2-4.4-2.2h-2V34h5.8V17.3c0-4.3 2.1-6.1 4.5-6.1 2.3 0 4.2 1.9 4.2 5.1V34h5.8V17.3c0-4.3 2.1-6.1 4.5-6.1 2.3 0 4.2 1.9 4.2 5.1V34H79V16.3c0-6-3.2-9.7-6-9.7zM14.5 17.6c0-3.1-1.1-4.8-3.7-4.8-1.9 0-3.3 1-4.3 2.5l-.2-.3c-.3-1.5-1.7-2.4-4.5-2.4h-1.8v21.4h5.8V17.3c0-4.3 2.1-6.1 4.5-6.1 2.3 0 4.2 1.9 4.2 5.1v17.7h5.8v-16.4z"/>
  <path fill="#FF9900" d="M12.4 35c-4.3 3.4-10.2 5.2-15.8 5.2-8.5 0-16.1-3.3-21.7-8.7l-2.1 2c6.1 5.9 14.5 9.5 23.8 9.5 6.2 0 12.6-2 17.5-5.8l-1.7-2.2zM1.3 36l2.8 11.4 8.7-7.9-11.5-3.5z" transform="translate(40,0)"/>
</svg>
