<svg xmlns="http://www.w3.org/2000/svg" viewBox="0 0 448 512">
  <path fill="#00758F" d="M448 290.7c-2.4-7.2-11.4-11.4-18.4-13.8l-1.3-.4c-12.7-3.7-27.1-5.1-40.4-5.1-40.2 0-73.4 12.3-95.9 30.6 12.3-15.6 15.6-32.9 11.5-49.8-3.4-14.1-13.8-24.8-29.4-24.8-19.1 0-32.9 14.5-32.9 33.3 0 11.8 6.4 22.3 16.3 30.3 4.1 3.4 8.7 6.2 13.7 8.3-40.8 14.5-66.2 46.2-74.8 83.2-6.5 28.5 2.1 56.7 20.3 75.2 18.2 18.5 45.4 28.3 76.5 28.3 48.7 0 94.6-22.1 127.3-61.9l1.1-1.3c8.1-10.2 14.9-21.4 20.1-33.3 5.3-12.3 8.3-25.5 8.7-39.3l.1-3.2c-.1-17.7-2.1-35.4-6.4-52.6l-3.3-12.2c-.3-.9-.6-1.9-1-2.8zM245.5 451.8c-23.7 0-44.4-6.5-58.4-18.4-14-11.9-20.3-29.3-17.7-49.1 5-37.4 38.6-70.4 81-89.6l1.3-.6c4.9-2.2 10-4.1 15.2-5.7 1.8-.5 3.5-1 5.3-1.4-1.5 5.5-2.2 11.2-2.1 16.9.3 22.4 17.5 41.1 40.5 44.2 1.3.1 2.6.2 3.9.2l1.3-.1c1.5 13.9.7 27.9-2.3 41.5-5.5 25-18.4 46.7-36.4 61.1l-1.3 1c-8.9 7.1-20.2 11-29 11zM114.6 226.7l-4.1-4.1-5.1 1.7c-9.1 3.3-19.5 3.7-28.7 1-13-3.7-22.4-14.1-25.1-27.5-2.7-13.4 1.7-27.4 11.5-37.1l4.1-4.1-5.7-1.1c-15.6-3.3-29.4-10.9-39.6-21.8-10.2-11-15.6-24.8-15.6-39.6V88.8c0-34.9 33.3-64.4 75.3-66.2C96.9 22.1 113.8 28 128.1 39c14.3 11 24.3 26.3 28.5 44.2l.6 2.3 2.1-1c17.5-8.7 36.8-13.2 56.4-13.2 15.2 0 29.8 2.3 43.1 6.5l3.2 1 1-3.2c1.7-5.5 4.3-10.6 7.6-15.2-3.4-3.1-6.4-6.6-8.9-10.3-1.1-1.7-2-3.4-2.8-5.2l-3-4.1 1.7-4.8c1.3-4 6.2-14.7 13.8-21 7.6-6.3 18.5-9.1 32.5-8.5 12.3.6 22.4 4.5 30 11.7l3 2.8-1.5 4.1c-1.3 3.3-3.3 6.4-5.8 9.1-1.1 1.3-2.3 2.5-3.6 3.6-1.5 5.5-.7 11.4 2.2 16.5 1.5 2.6 3.5 4.9 5.8 6.9l3 2.8-1.5 4.1c-2.3 5.8-6.4 10.9-11.8 14.5-9.1 5.9-20.2 8.7-31.5 8.3-5.2-.2-10.2-1.1-14.9-2.7-10.6 15.6-15.6 34.6-13.8 54.1 2.7 28.5 17.5 54.2 41.5 72.3l4.1 2.8-4.8 1.3c-28.5 7.6-54.7 24.2-74.8 47.1l-1.3 1.5-1.5-1.3c-23-19.6-51-30.6-80.1-31.4-8.8-.2-17.6.7-26 2.7l-4.1 1.1-.3-4.3c-1.2-19.1-3.3-38.3-6.1-57.3z"/>
</svg>
